# xmcd
#
# Track frame offsets:
#	150
#	20184
#	39547
#	58625
#	71780
#	87354
#	106859
#	125423
#	143210
#	161384
#	176902
#	191999
#	205606
#	222918
#	240092
#	260902
#	278421
#	292858
#	310177
#
# Disc length: 4341 seconds
#
# Revision: 0
# Processed by: cddbd v1.5.2PL0 Copyright (c) Steve Scherf et al.
# Submitted via: EasyCDDAExtractor 11.0.2.1
#
DISCID=1910f313
DTITLE=HARI MATA HARI - Baš Ti Lijepo Stoje Suze
DYEAR=1900
DGENRE=Ballad
TTITLE0=Kao Domine
TTITLE1=Zjenico Oka Moga
TTITLE2=Baš Ti Lijepo Stoje Suze
TTITLE3=Sad Znam Fol
TTITLE4=Kad Izgorim
TTITLE5=Ja Imam Te, A Ko Da Te Nemam
TTITLE6=Zavedi Me
TTITLE7=Proklet Sam Što Ti Opraštam
TTITLE8=Ja Odavno Nemam Razloga Za Smijeh
TTITLE9=Naći Ću Sebi Nekog Na Ovom Globusu
TTITLE10=Upomoć
TTITLE11=Starac I More
TTITLE12=Kad Dođe Oktobar
TTITLE13=Ne Lomi Me
TTITLE14=Strah Me Da Te Volim
TTITLE15=Voleo Bih Da Te Ne Volim
TTITLE16=Sedamnaest Ti Je Godina
TTITLE17=Ostavi Suze Za Kraj
TTITLE18=Svi Moji Drugovi
EXTD=
EXTT0=
EXTT1=
EXTT2=
EXTT3=
EXTT4=
EXTT5=
EXTT6=
EXTT7=
EXTT8=
EXTT9=
EXTT10=
EXTT11=
EXTT12=
EXTT13=
EXTT14=
EXTT15=
EXTT16=
EXTT17=
EXTT18=
PLAYORDER=
